<?xml version="1.0" encoding="utf-8"?>
<!-- Generator: Adobe Illustrator 22.0.1, SVG Export Plug-In . SVG Version: 6.00 Build 0)  -->
<svg version="1.1" id="Layer_1" xmlns="http://www.w3.org/2000/svg" xmlns:xlink="http://www.w3.org/1999/xlink" x="0px" y="0px"
	 viewBox="0 0 250 41" style="enable-background:new 0 0 250 41;" xml:space="preserve">
<style type="text/css">
	.st0{fill:#2F3336;}
	.st1{fill:#AEB7C2;}
</style>
<title>Summitto</title>
<desc>we are hiring</desc>
<g>
	<path class="st0" d="M5.7,33.2c0.4,0.7,1,1.2,1.7,1.6c0.7,0.4,1.5,0.7,2.3,0.9c0.9,0.2,1.8,0.3,2.7,0.3c0.7,0,1.5-0.1,2.2-0.2
		c0.8-0.1,1.5-0.3,2.2-0.6c0.7-0.3,1.2-0.7,1.6-1.3c0.4-0.5,0.6-1.2,0.6-2.1c0-1.2-0.4-2.1-1.3-2.7c-0.9-0.6-2-1.1-3.3-1.5
		c-1.3-0.4-2.8-0.7-4.3-1c-1.6-0.3-3-0.7-4.3-1.3c-1.3-0.5-2.4-1.3-3.3-2.3c-0.9-1-1.3-2.4-1.3-4.1c0-1.4,0.3-2.6,0.9-3.6
		c0.6-1,1.4-1.8,2.4-2.4c1-0.6,2.1-1.1,3.3-1.4c1.2-0.3,2.4-0.5,3.6-0.5c1.6,0,3,0.1,4.3,0.4c1.3,0.3,2.5,0.7,3.5,1.4
		c1,0.7,1.8,1.5,2.4,2.7c0.6,1.1,1,2.5,1.1,4.2h-4.5c-0.1-0.9-0.3-1.6-0.7-2.2c-0.4-0.6-0.9-1.1-1.5-1.4c-0.6-0.4-1.3-0.6-2-0.8
		c-0.7-0.2-1.5-0.2-2.2-0.2c-0.7,0-1.4,0.1-2,0.2c-0.7,0.1-1.3,0.3-1.9,0.6c-0.6,0.3-1,0.6-1.4,1.1c-0.4,0.4-0.5,1-0.5,1.7
		c0,0.8,0.3,1.4,0.8,1.9c0.5,0.5,1.2,0.9,2.1,1.3c0.9,0.3,1.8,0.6,2.9,0.9c1.1,0.2,2.1,0.5,3.2,0.7c1.1,0.2,2.2,0.6,3.3,0.9
		c1.1,0.4,2,0.8,2.9,1.4c0.8,0.6,1.5,1.3,2,2.2c0.5,0.9,0.8,2,0.8,3.3c0,1.7-0.3,3-1,4.1c-0.7,1.1-1.6,2-2.7,2.7
		c-1.1,0.7-2.4,1.1-3.8,1.4c-1.4,0.3-2.8,0.4-4.2,0.4c-1.5,0-3-0.2-4.4-0.5c-1.4-0.3-2.6-0.8-3.7-1.6c-1.1-0.7-1.9-1.7-2.6-2.9
		c-0.6-1.2-1-2.6-1.1-4.3H5C5.1,31.6,5.3,32.5,5.7,33.2z"/>
	<path class="st0" d="M47.4,39.3v-4.4h-0.1c-1,1.7-2.2,3-3.7,3.7c-1.5,0.8-3.2,1.2-5.3,1.2c-1.8,0-3.3-0.2-4.5-0.7
		c-1.2-0.5-2.2-1.2-2.9-2c-0.7-0.9-1.3-1.9-1.6-3.2c-0.3-1.2-0.5-2.6-0.5-4.1V11.8h4.5v18.6c0,1.7,0.5,3.1,1.5,4
		c1,1,2.4,1.5,4.1,1.5c1.4,0,2.6-0.2,3.6-0.6c1-0.4,1.9-1,2.5-1.8c0.7-0.8,1.2-1.7,1.5-2.7c0.3-1,0.5-2.2,0.5-3.4V11.8h4.5v27.5
		H47.4z"/>
	<path class="st0" d="M62.7,11.8v4h0.1c2.1-3.1,5-4.7,8.9-4.7c1.7,0,3.2,0.4,4.6,1.1c1.4,0.7,2.4,1.9,2.9,3.6
		c0.9-1.5,2.1-2.6,3.6-3.5c1.5-0.8,3.2-1.2,5-1.2c1.4,0,2.6,0.2,3.7,0.5c1.1,0.3,2.1,0.8,2.9,1.4c0.8,0.6,1.4,1.5,1.9,2.5
		c0.4,1,0.7,2.2,0.7,3.6v20.2h-4.5v-18c0-0.9-0.1-1.6-0.2-2.4c-0.1-0.7-0.4-1.4-0.8-1.9c-0.4-0.5-0.9-1-1.6-1.3
		c-0.7-0.3-1.6-0.5-2.7-0.5c-2.2,0-4,0.6-5.3,1.9c-1.3,1.3-1.9,3-1.9,5.1v17.1h-4.5v-18c0-0.9-0.1-1.7-0.2-2.4
		c-0.2-0.7-0.4-1.4-0.8-1.9c-0.4-0.5-0.9-1-1.6-1.3c-0.7-0.3-1.5-0.5-2.5-0.5c-1.3,0-2.4,0.3-3.4,0.8c-0.9,0.5-1.7,1.2-2.3,1.9
		c-0.6,0.7-1,1.5-1.3,2.3c-0.3,0.8-0.4,1.5-0.4,2v17.1h-4.5V11.8H62.7z"/>
	<path class="st0" d="M108.1,11.8v4h0.1c2.1-3.1,5-4.7,8.9-4.7c1.7,0,3.2,0.4,4.6,1.1c1.4,0.7,2.4,1.9,2.9,3.6
		c0.9-1.5,2.1-2.6,3.6-3.5c1.5-0.8,3.2-1.2,5-1.2c1.4,0,2.6,0.2,3.7,0.5c1.1,0.3,2.1,0.8,2.9,1.4c0.8,0.6,1.4,1.5,1.9,2.5
		c0.4,1,0.7,2.2,0.7,3.6v20.2h-4.5v-18c0-0.9-0.1-1.6-0.2-2.4c-0.1-0.7-0.4-1.4-0.8-1.9c-0.4-0.5-0.9-1-1.6-1.3
		c-0.7-0.3-1.6-0.5-2.7-0.5c-2.2,0-4,0.6-5.3,1.9c-1.3,1.3-1.9,3-1.9,5.1v17.1h-4.5v-18c0-0.9-0.1-1.7-0.2-2.4s-0.4-1.4-0.8-1.9
		c-0.4-0.5-0.9-1-1.6-1.3c-0.7-0.3-1.5-0.5-2.5-0.5c-1.3,0-2.4,0.3-3.4,0.8c-0.9,0.5-1.7,1.2-2.3,1.9c-0.6,0.7-1,1.5-1.3,2.3
		c-0.3,0.8-0.4,1.5-0.4,2v17.1h-4.5V11.8H108.1z"/>
	<path class="st0" d="M149.4,6.9V1.3h4.5v5.5H149.4z M154,11.8v27.5h-4.5V11.8H154z"/>
	<path class="st0" d="M172.7,11.8v4h-5.5v17.1c0,0.5,0,1,0.1,1.3c0.1,0.3,0.3,0.6,0.5,0.7c0.2,0.2,0.6,0.3,1,0.3
		c0.4,0.1,1,0.1,1.7,0.1h2.1v4h-3.5c-1.2,0-2.2-0.1-3-0.2c-0.8-0.2-1.5-0.5-2-0.9c-0.5-0.4-0.9-1-1.1-1.8c-0.2-0.8-0.4-1.8-0.4-3.1
		V15.8h-4.7v-4h4.7V3.6h4.5v8.2H172.7z"/>
	<path class="st0" d="M189.5,11.8v4H184v17.1c0,0.5,0,1,0.1,1.3c0.1,0.3,0.3,0.6,0.5,0.7c0.2,0.2,0.6,0.3,1,0.3
		c0.4,0.1,1,0.1,1.7,0.1h2.1v4H186c-1.2,0-2.2-0.1-3-0.2c-0.8-0.2-1.5-0.5-2-0.9c-0.5-0.4-0.9-1-1.1-1.8c-0.2-0.8-0.4-1.8-0.4-3.1
		V15.8h-4.7v-4h4.7V3.6h4.5v8.2H189.5z"/>
	<path class="st0" d="M193.9,19.9c0.6-1.8,1.4-3.3,2.6-4.6c1.1-1.3,2.5-2.3,4.2-3.1c1.7-0.7,3.6-1.1,5.7-1.1c2.2,0,4.1,0.4,5.8,1.1
		c1.6,0.7,3,1.8,4.2,3.1c1.1,1.3,2,2.8,2.6,4.6c0.6,1.8,0.9,3.6,0.9,5.7c0,2-0.3,3.9-0.9,5.6c-0.6,1.7-1.4,3.3-2.6,4.5
		c-1.1,1.3-2.5,2.3-4.2,3s-3.6,1.1-5.8,1.1c-2.2,0-4.1-0.4-5.7-1.1c-1.7-0.7-3.1-1.7-4.2-3c-1.1-1.3-2-2.8-2.6-4.5
		c-0.6-1.7-0.9-3.6-0.9-5.6C193,23.6,193.3,21.7,193.9,19.9z M198.5,30c0.4,1.3,1.1,2.4,1.8,3.2c0.8,0.9,1.7,1.5,2.7,2
		c1,0.5,2.2,0.7,3.3,0.7c1.2,0,2.3-0.2,3.3-0.7c1-0.5,2-1.1,2.7-2c0.8-0.9,1.4-1.9,1.8-3.2c0.4-1.3,0.7-2.8,0.7-4.4
		c0-1.7-0.2-3.1-0.7-4.4c-0.4-1.3-1.1-2.4-1.8-3.3c-0.8-0.9-1.7-1.6-2.7-2c-1-0.5-2.2-0.7-3.3-0.7c-1.2,0-2.3,0.2-3.3,0.7
		c-1,0.5-2,1.1-2.7,2c-0.8,0.9-1.4,2-1.8,3.3c-0.4,1.3-0.7,2.8-0.7,4.4C197.8,27.2,198,28.7,198.5,30z"/>
	<path class="st1" d="M224.9,20.5v-8.2h8.4v8.2H224.9z M233.2,31.1v8.2h-8.4v-8.2H233.2z"/>
	<path class="st1" d="M239.6,20.5v-8.2h8.4v8.2H239.6z M248,31.1v8.2h-8.4v-8.2H248z"/>
</g>
</svg>
